<svg width="27" height="26" viewBox="0 0 27 26" fill="none" xmlns="http://www.w3.org/2000/svg">
<path d="M13.6524 20.3416C14.0302 20.3416 14.3471 20.2082 14.6031 19.9416C14.8582 19.6749 14.9857 19.3527 14.9857 18.9749C14.9857 18.5971 14.8582 18.2749 14.6031 18.0082C14.3471 17.7416 14.0302 17.6082 13.6524 17.6082C13.2524 17.6082 12.9248 17.7416 12.6697 18.0082C12.4137 18.2749 12.2857 18.5971 12.2857 18.9749C12.2857 19.3527 12.4137 19.6749 12.6697 19.9416C12.9248 20.2082 13.2524 20.3416 13.6524 20.3416ZM12.6857 15.5416H14.5857C14.5857 14.8971 14.6746 14.3802 14.8524 13.9909C15.0302 13.6025 15.4524 13.0749 16.1191 12.4082C16.7191 11.8305 17.1746 11.2913 17.4857 10.7909C17.7968 10.2913 17.9524 9.70823 17.9524 9.04156C17.9524 7.88601 17.5413 6.98601 16.7191 6.34156C15.8968 5.69712 14.9191 5.3749 13.7857 5.3749C12.6746 5.3749 11.7524 5.6749 11.019 6.2749C10.2857 6.8749 9.7635 7.5749 9.45238 8.3749L11.1857 9.04156C11.3413 8.61934 11.6137 8.19712 12.003 7.7749C12.3915 7.35267 12.9746 7.14156 13.7524 7.14156C14.5524 7.14156 15.1413 7.35801 15.519 7.7909C15.8968 8.22467 16.0857 8.69712 16.0857 9.20823C16.0857 9.65267 15.9524 10.0638 15.6857 10.4416C15.419 10.8193 15.0857 11.186 14.6857 11.5416C13.819 12.3193 13.2693 12.9473 13.0364 13.4256C12.8026 13.9029 12.6857 14.6082 12.6857 15.5416ZM13.6524 25.5082C11.8968 25.5082 10.2524 25.1749 8.71905 24.5082C7.18572 23.8416 5.84661 22.9416 4.70172 21.8082C3.55772 20.6749 2.65238 19.3358 1.98572 17.7909C1.31905 16.2469 0.985718 14.5971 0.985718 12.8416C0.985718 11.086 1.31905 9.43578 1.98572 7.8909C2.65238 6.3469 3.55772 5.00823 4.70172 3.8749C5.84661 2.74156 7.18572 1.84156 8.71905 1.1749C10.2524 0.50823 11.8968 0.174896 13.6524 0.174896C15.4302 0.174896 17.0857 0.50823 18.6191 1.1749C20.1524 1.84156 21.4915 2.74156 22.6364 3.8749C23.7804 5.00823 24.6804 6.3469 25.3364 7.8909C25.9915 9.43578 26.319 11.086 26.319 12.8416C26.319 14.5971 25.9915 16.2469 25.3364 17.7909C24.6804 19.3358 23.7804 20.6749 22.6364 21.8082C21.4915 22.9416 20.1524 23.8416 18.6191 24.5082C17.0857 25.1749 15.4302 25.5082 13.6524 25.5082ZM13.6524 23.5082C16.6302 23.5082 19.1524 22.4696 21.219 20.3922C23.2857 18.314 24.319 15.7971 24.319 12.8416C24.319 9.88601 23.2857 7.36912 21.219 5.2909C19.1524 3.21356 16.6302 2.1749 13.6524 2.1749C10.7191 2.1749 8.20794 3.21356 6.11905 5.2909C4.03016 7.36912 2.98572 9.88601 2.98572 12.8416C2.98572 15.7971 4.03016 18.314 6.11905 20.3922C8.20794 22.4696 10.7191 23.5082 13.6524 23.5082Z" fill="#676767"/>
</svg>
