<svg width="113" height="33" viewBox="0 0 113 33" fill="none" xmlns="http://www.w3.org/2000/svg">
<path d="M16.9282 0.652222L0.652344 16.6416L16.9282 32.631L33.2041 16.6416L16.9282 0.652222ZM17.7775 5.44545V3.84856L29.9505 15.8073H17.7775V5.44545V5.44545ZM16.079 5.44545V15.8048H3.90596L16.079 3.84856V5.44545ZM16.079 17.4759V29.4346L3.90596 17.4759H16.079ZM29.9505 17.4759L17.7775 29.4346V17.4759H29.9505V17.4759Z" fill="black"/>
<path opacity="0.3" d="M16.0791 5.44546V15.8048H15.7456H3.90601L16.0791 3.84857V5.44546Z" fill="black"/>
<path opacity="0.3" d="M29.9505 17.4759L17.7775 29.4346V17.4759H29.9062H29.9505Z" fill="black"/>
<path d="M58.5686 3.98377H58.1925C57.4664 3.98377 56.8744 4.5653 56.8744 5.27861V7.11201C55.0286 4.81453 52.1738 3.33635 48.972 3.33635C43.4199 3.33635 38.9059 7.77376 38.9059 13.2253C38.9059 18.6768 43.4228 23.1142 48.972 23.1142C52.1738 23.1142 55.0315 21.636 56.8744 19.3385V21.1719C56.8744 21.8852 57.4664 22.4668 58.1925 22.4668H58.5686C59.2947 22.4668 59.8867 21.8852 59.8867 21.1719V5.27288C59.8867 4.55957 59.2947 3.97804 58.5686 3.97804V3.98377ZM48.972 20.5274C44.875 20.5274 41.5391 17.253 41.5391 13.2253C41.5391 9.19751 44.8721 5.92317 48.972 5.92317C53.0719 5.92317 56.405 9.19751 56.405 13.2253C56.405 17.253 53.0719 20.5274 48.972 20.5274Z" fill="black"/>
<path d="M110.882 3.98378H110.506C109.78 3.98378 109.188 4.56532 109.188 5.27863V7.11203C107.342 4.81455 104.487 3.33636 101.285 3.33636C95.7334 3.33636 91.2194 7.77377 91.2194 13.2253C91.2194 18.6768 95.7363 23.1142 101.285 23.1142C104.487 23.1142 107.345 21.636 109.188 19.3385V21.1719C109.188 21.8852 109.78 22.4668 110.506 22.4668H110.882C111.608 22.4668 112.2 21.8852 112.2 21.1719V5.2729C112.2 4.55959 111.608 3.97806 110.882 3.97806V3.98378ZM101.285 20.5274C97.1885 20.5274 93.8525 17.253 93.8525 13.2253C93.8525 9.19753 97.1855 5.92318 101.285 5.92318C105.385 5.92318 108.718 9.19753 108.718 13.2253C108.718 17.253 105.385 20.5274 101.285 20.5274Z" fill="black"/>
<path d="M72.306 3.33636H66.2844C65.8587 3.33636 65.4738 3.5197 65.1997 3.81477C64.8322 4.05827 64.5902 4.48224 64.5902 4.96637V21.7506C64.5902 22.504 65.1822 23.1171 65.9083 23.1171H66.2844C67.0105 23.1171 67.6025 22.504 67.6025 21.7506V6.45888H72.306C73.1371 6.45888 73.8107 5.75989 73.8107 4.89762C73.8107 4.03535 73.1371 3.33636 72.306 3.33636V3.33636Z" fill="black"/>
<path d="M88.6912 20.854L88.6766 20.8454C88.3879 20.6964 88.108 20.5331 87.8368 20.3555C87.5423 20.1607 87.1777 20.0919 86.8395 20.1951C85.9618 20.4644 85.0141 20.5789 84.0284 20.5016C80.3805 20.2151 77.4499 17.2931 77.2137 13.7065C76.9337 9.46394 80.3688 5.92318 84.6291 5.92318C85.3931 5.92318 86.1309 6.03777 86.8249 6.24975C87.1632 6.35288 87.5277 6.30132 87.8193 6.10652C88.0934 5.92318 88.3792 5.75416 88.6766 5.60233L88.6912 5.59374C89.3035 5.28149 89.2773 4.42494 88.6445 4.15566C87.3906 3.6171 86.0084 3.32204 84.5533 3.3335C79.0712 3.3736 74.5747 7.81674 74.563 13.2024C74.5513 18.6653 79.0712 23.1142 84.6291 23.1142C86.0638 23.1142 87.4285 22.8163 88.6649 22.2834C89.286 22.0142 89.2919 21.1605 88.6912 20.854V20.854ZM84.3929 4.6312C84.425 4.6312 84.4542 4.6312 84.4833 4.6312C84.4163 4.6312 84.3492 4.6312 84.2821 4.63693C84.3171 4.63693 84.355 4.6312 84.39 4.6312H84.3929ZM75.884 13.0591C75.884 13.0076 75.884 12.9589 75.884 12.9073C75.884 12.8844 75.8869 12.8643 75.8869 12.8414C75.884 12.913 75.884 12.9875 75.8811 13.0591H75.884Z" fill="black"/>
<path d="M78.7463 29.6553V29.3093H79.8267C79.9757 29.3093 80.1088 29.2792 80.2259 29.2189C80.3465 29.1585 80.4405 29.0734 80.5079 28.9634C80.5789 28.8499 80.6144 28.715 80.6144 28.5589C80.6144 28.4028 80.5789 28.2697 80.5079 28.1598C80.4405 28.0462 80.3465 27.9593 80.2259 27.899C80.1088 27.8351 79.9757 27.8032 79.8267 27.8032H78.7463V27.4626H79.8533C80.0733 27.4626 80.2702 27.5087 80.4441 27.6009C80.6179 27.6896 80.7545 27.8156 80.8539 27.9788C80.9568 28.142 81.0082 28.3354 81.0082 28.5589C81.0082 28.7789 80.9568 28.9723 80.8539 29.139C80.7545 29.3022 80.6179 29.43 80.4441 29.5222C80.2702 29.6109 80.0733 29.6553 79.8533 29.6553H78.7463ZM78.4962 31.1242V27.4626H78.8847V31.1242H78.4962ZM82.3356 31.1242V28.6228H82.7081V31.1242H82.3356ZM82.7081 29.6659L82.5538 29.5967C82.5538 29.2809 82.63 29.0308 82.7826 28.8463C82.9387 28.6618 83.1516 28.5696 83.4213 28.5696C83.5454 28.5696 83.659 28.5926 83.7619 28.6387C83.8648 28.6813 83.9606 28.7505 84.0493 28.8463L83.8045 29.1071C83.7441 29.0397 83.6767 28.9918 83.6022 28.9634C83.5313 28.935 83.4497 28.9208 83.3574 28.9208C83.1658 28.9208 83.0097 28.9847 82.8891 29.1124C82.7684 29.2366 82.7081 29.4211 82.7081 29.6659ZM86.2041 31.1774C85.9522 31.1774 85.7269 31.1206 85.5282 31.0071C85.3295 30.8936 85.1716 30.7374 85.0545 30.5387C84.941 30.34 84.8842 30.1165 84.8842 29.8682C84.8842 29.6233 84.941 29.4034 85.0545 29.2082C85.1681 29.0095 85.3224 28.8534 85.5176 28.7399C85.7127 28.6263 85.9309 28.5696 86.1722 28.5696C86.3993 28.5696 86.5997 28.621 86.7736 28.7239C86.951 28.8268 87.0894 28.9705 87.1887 29.155C87.2916 29.3359 87.3431 29.5453 87.3431 29.783C87.3431 29.8114 87.3413 29.8451 87.3377 29.8841C87.3342 29.9196 87.3271 29.9622 87.3164 30.0119H85.1503V29.6925H87.1142L86.9811 29.8096C86.9847 29.6251 86.9528 29.4672 86.8853 29.3359C86.8215 29.2011 86.7275 29.0982 86.6033 29.0273C86.4826 28.9527 86.3354 28.9155 86.1615 28.9155C85.9806 28.9155 85.8227 28.9545 85.6879 29.0326C85.553 29.1106 85.4466 29.2206 85.3685 29.3626C85.294 29.5009 85.2568 29.6659 85.2568 29.8575C85.2568 30.0491 85.2958 30.2176 85.3739 30.3631C85.4555 30.5086 85.5672 30.6221 85.7092 30.7037C85.8546 30.7853 86.0214 30.8261 86.2094 30.8261C86.362 30.8261 86.5022 30.7995 86.6299 30.7463C86.7576 30.6895 86.8658 30.6062 86.9545 30.4962L87.194 30.741C87.0769 30.8794 86.9315 30.9876 86.7576 31.0656C86.5873 31.1401 86.4028 31.1774 86.2041 31.1774ZM89.4361 31.1242L88.2812 28.6228H88.6963L89.6703 30.8102H89.4361L90.4154 28.6228H90.8199L89.6543 31.1242H89.4361ZM91.9786 31.1242V28.6228H92.3565V31.1242H91.9786ZM92.1649 28.0799C92.0939 28.0799 92.0336 28.0551 91.9839 28.0054C91.9342 27.9522 91.9094 27.8901 91.9094 27.8191C91.9094 27.7446 91.9342 27.6825 91.9839 27.6329C92.0336 27.5832 92.0939 27.5584 92.1649 27.5584C92.2429 27.5584 92.305 27.5832 92.3511 27.6329C92.4008 27.6825 92.4256 27.7446 92.4256 27.8191C92.4256 27.8901 92.4008 27.9522 92.3511 28.0054C92.305 28.0551 92.2429 28.0799 92.1649 28.0799ZM94.8679 31.1774C94.6373 31.1774 94.4297 31.1206 94.2452 31.0071C94.0607 30.8936 93.9135 30.7392 93.8035 30.5441C93.697 30.3454 93.6438 30.1236 93.6438 29.8788C93.6438 29.6304 93.697 29.4087 93.8035 29.2135C93.9135 29.0148 94.0607 28.8587 94.2452 28.7452C94.4297 28.6281 94.6373 28.5696 94.8679 28.5696C95.056 28.5696 95.2263 28.6068 95.3788 28.6813C95.5314 28.7558 95.6574 28.8623 95.7567 29.0006C95.8596 29.1355 95.9199 29.2951 95.9377 29.4796V30.262C95.9164 30.4429 95.8561 30.6026 95.7567 30.741C95.6609 30.8758 95.5367 30.9823 95.3842 31.0603C95.2316 31.1384 95.0595 31.1774 94.8679 31.1774ZM94.9318 30.8208C95.1056 30.8208 95.2582 30.7818 95.3895 30.7037C95.5208 30.6221 95.6237 30.5104 95.6982 30.3684C95.7727 30.223 95.8099 30.058 95.8099 29.8735C95.8099 29.6854 95.7709 29.5204 95.6928 29.3785C95.6183 29.2366 95.5154 29.1248 95.3842 29.0432C95.2529 28.9616 95.1003 28.9208 94.9265 28.9208C94.7526 28.9208 94.5983 28.9616 94.4634 29.0432C94.3286 29.1248 94.2222 29.2384 94.1441 29.3838C94.0696 29.5258 94.0323 29.689 94.0323 29.8735C94.0323 30.058 94.0696 30.223 94.1441 30.3684C94.2222 30.5104 94.3286 30.6221 94.4634 30.7037C94.6018 30.7818 94.7579 30.8208 94.9318 30.8208ZM96.1612 31.1242H95.7886V30.4536L95.8632 29.8362L95.7886 29.2348V27.3561H96.1612V31.1242ZM98.7635 31.1774C98.5116 31.1774 98.2863 31.1206 98.0876 31.0071C97.8889 30.8936 97.731 30.7374 97.6139 30.5387C97.5004 30.34 97.4436 30.1165 97.4436 29.8682C97.4436 29.6233 97.5004 29.4034 97.6139 29.2082C97.7275 29.0095 97.8818 28.8534 98.0769 28.7399C98.2721 28.6263 98.4903 28.5696 98.7316 28.5696C98.9586 28.5696 99.1591 28.621 99.333 28.7239C99.5104 28.8268 99.6487 28.9705 99.7481 29.155C99.851 29.3359 99.9024 29.5453 99.9024 29.783C99.9024 29.8114 99.9007 29.8451 99.8971 29.8841C99.8936 29.9196 99.8865 29.9622 99.8758 30.0119H97.7097V29.6925H99.6736L99.5405 29.8096C99.5441 29.6251 99.5121 29.4672 99.4447 29.3359C99.3809 29.2011 99.2868 29.0982 99.1627 29.0273C99.042 28.9527 98.8948 28.9155 98.7209 28.9155C98.54 28.9155 98.3821 28.9545 98.2473 29.0326C98.1124 29.1106 98.006 29.2206 97.9279 29.3626C97.8534 29.5009 97.8162 29.6659 97.8162 29.8575C97.8162 30.0491 97.8552 30.2176 97.9333 30.3631C98.0149 30.5086 98.1266 30.6221 98.2685 30.7037C98.414 30.7853 98.5808 30.8261 98.7688 30.8261C98.9214 30.8261 99.0615 30.7995 99.1893 30.7463C99.317 30.6895 99.4252 30.6062 99.5139 30.4962L99.7534 30.741C99.6363 30.8794 99.4909 30.9876 99.317 31.0656C99.1467 31.1401 98.9622 31.1774 98.7635 31.1774ZM98.0184 28.2396L97.8481 28.0693L98.5772 27.2497H98.8753L99.6044 28.0693L99.4341 28.2396L98.6038 27.5158L98.854 27.5211L98.0184 28.2396ZM102.984 31.1242V29.6553C102.984 29.4353 102.919 29.2579 102.787 29.1231C102.66 28.9847 102.489 28.9155 102.277 28.9155C102.131 28.9155 102.003 28.9474 101.893 29.0113C101.783 29.0752 101.696 29.1621 101.633 29.2721C101.569 29.3821 101.537 29.508 101.537 29.6499L101.366 29.5541C101.366 29.3661 101.411 29.1976 101.5 29.0485C101.588 28.8995 101.707 28.7824 101.856 28.6973C102.009 28.6121 102.183 28.5696 102.378 28.5696C102.569 28.5696 102.74 28.6157 102.889 28.7079C103.038 28.8002 103.153 28.9244 103.235 29.0805C103.32 29.2366 103.362 29.4069 103.362 29.5914V31.1242H102.984ZM101.164 31.1242V28.6228H101.537V31.1242H101.164ZM105.89 31.1774C105.645 31.1774 105.423 31.1206 105.225 31.0071C105.03 30.89 104.873 30.7321 104.756 30.5334C104.643 30.3347 104.586 30.113 104.586 29.8682C104.586 29.6233 104.643 29.4034 104.756 29.2082C104.873 29.0095 105.03 28.8534 105.225 28.7399C105.423 28.6263 105.645 28.5696 105.89 28.5696C106.078 28.5696 106.254 28.605 106.417 28.676C106.58 28.747 106.718 28.8463 106.832 28.974L106.587 29.2242C106.502 29.1284 106.399 29.0556 106.279 29.006C106.158 28.9527 106.028 28.9261 105.89 28.9261C105.713 28.9261 105.555 28.9669 105.416 29.0485C105.278 29.1302 105.17 29.2419 105.092 29.3838C105.014 29.5222 104.975 29.6837 104.975 29.8682C104.975 30.0491 105.014 30.2123 105.092 30.3578C105.17 30.4997 105.278 30.6115 105.416 30.6931C105.555 30.7747 105.713 30.8155 105.89 30.8155C106.032 30.8155 106.163 30.7907 106.284 30.741C106.404 30.6878 106.507 30.6133 106.593 30.5175L106.843 30.7676C106.726 30.8989 106.584 31 106.417 31.071C106.254 31.1419 106.078 31.1774 105.89 31.1774ZM108.057 31.1242V28.6228H108.435V31.1242H108.057ZM108.244 28.0799C108.173 28.0799 108.112 28.0551 108.063 28.0054C108.013 27.9522 107.988 27.8901 107.988 27.8191C107.988 27.7446 108.013 27.6825 108.063 27.6329C108.112 27.5832 108.173 27.5584 108.244 27.5584C108.322 27.5584 108.384 27.5832 108.43 27.6329C108.479 27.6825 108.504 27.7446 108.504 27.8191C108.504 27.8901 108.479 27.9522 108.43 28.0054C108.384 28.0551 108.322 28.0799 108.244 28.0799ZM110.968 31.1774C110.73 31.1774 110.517 31.1206 110.329 31.0071C110.141 30.89 109.992 30.7339 109.882 30.5387C109.776 30.3436 109.722 30.1236 109.722 29.8788C109.722 29.6304 109.776 29.4087 109.882 29.2135C109.992 29.0148 110.141 28.8587 110.329 28.7452C110.517 28.6281 110.728 28.5696 110.963 28.5696C111.154 28.5696 111.324 28.6086 111.473 28.6866C111.626 28.7612 111.748 28.8676 111.841 29.006C111.936 29.1408 111.995 29.2987 112.016 29.4796V30.262C111.995 30.4429 111.936 30.6026 111.841 30.741C111.748 30.8794 111.626 30.9876 111.473 31.0656C111.324 31.1401 111.156 31.1774 110.968 31.1774ZM111.026 30.8208C111.285 30.8208 111.493 30.7339 111.649 30.56C111.809 30.3862 111.889 30.1573 111.889 29.8735C111.889 29.6854 111.851 29.5204 111.777 29.3785C111.706 29.233 111.605 29.1213 111.473 29.0432C111.346 28.9616 111.195 28.9208 111.021 28.9208C110.844 28.9208 110.686 28.9616 110.547 29.0432C110.413 29.1248 110.304 29.2384 110.223 29.3838C110.145 29.5258 110.106 29.689 110.106 29.8735C110.106 30.058 110.145 30.2212 110.223 30.3631C110.304 30.505 110.414 30.6168 110.553 30.6984C110.691 30.78 110.849 30.8208 111.026 30.8208ZM111.867 31.1242V30.4536L111.942 29.8362L111.867 29.2348V28.6228H112.24V31.1242H111.867Z" fill="black"/>
</svg>
